<?xml version="1.0" encoding="UTF-8" standalone="no"?>
<!-- Created with Inkscape (http://www.inkscape.org/) -->

<svg
   width="81mm"
   height="19mm"
   viewBox="0 0 81 19"
   version="1.1"
   id="svg5"
   xml:space="preserve"
   inkscape:version="1.2 (dc2aeda, 2022-05-15)"
   sodipodi:docname="prostatest.svg"
   xmlns:inkscape="http://www.inkscape.org/namespaces/inkscape"
   xmlns:sodipodi="http://sodipodi.sourceforge.net/DTD/sodipodi-0.dtd"
   xmlns="http://www.w3.org/2000/svg"
   xmlns:svg="http://www.w3.org/2000/svg"><sodipodi:namedview
     id="namedview7"
     pagecolor="#ffffff"
     bordercolor="#000000"
     borderopacity="0.25"
     inkscape:showpageshadow="2"
     inkscape:pageopacity="0.0"
     inkscape:pagecheckerboard="0"
     inkscape:deskcolor="#d1d1d1"
     inkscape:document-units="mm"
     showgrid="false"
     inkscape:zoom="0.72515432"
     inkscape:cx="378.54011"
     inkscape:cy="450.9385"
     inkscape:window-width="1390"
     inkscape:window-height="964"
     inkscape:window-x="0"
     inkscape:window-y="25"
     inkscape:window-maximized="0"
     inkscape:current-layer="layer1" /><defs
     id="defs2" /><g
     inkscape:label="Capa 1"
     inkscape:groupmode="layer"
     id="layer1"><path
       style="fill:#f2c7c7;stroke:none;stroke-width:0.264583"
       d="M 2.4640217,9.2219032 C 2.2798452,8.2262762 2.152316,7.3047322 2.4489137,6.3114862 c 0.7044795,-2.359157 4.568719,-4.890637 6.7899489,-2.795693 2.3529924,2.219246 -0.112316,6.20313 -2.541508,7.0290268 L 8.0202719,3.6656532 4.8452716,4.1948202 2.1994383,17.423986 c 0.7687469,0 2.0723225,0.238205 2.7150483,-0.271938 1.4339093,-1.138106 0.4357158,-4.098714 1.7136533,-5.389457 0.801476,-0.809493 2.509202,-0.715169 3.5049091,-1.429491 2.708327,-1.9428618 3.43363,-6.4582138 0.0037,-8.1034728 -2.7781511,-1.33259001 -6.7471125,0.06421 -8.6744963,2.240386 -1.48067966,1.671849 -1.65324886,4.453493 1.001792,4.75189 M 37.12446,7.1052372 37.653627,7.8989862 C 37.052229,10.222928 37.076835,13.007323 35.007793,14.51357 L 34.478627,6.3114862 c -3.192992,0.403887 -3.714221,2.335901 -6.35,3.7041668 -0.785548,-2.9955858 -3.413813,-4.2924678 -6.005803,-1.9758018 -1.660975,1.48455 -2.570242,4.2707708 -2.432077,6.4737188 0.32475,5.178001 6.69798,2.529178 7.81267,-0.79375 0.845608,-2.520659 2.327804,-3.320045 4.064793,-5.2916668 0.0013,1.9323048 0.677863,4.1859988 0.180446,6.0803098 -0.42201,1.607132 -1.684337,1.092968 -2.297112,0.0051 0.529695,-0.08448 2.200539,-0.863282 0.969433,-1.422955 -1.814248,-0.82468 -2.178315,1.906534 -1.724025,2.998814 1.460764,3.512397 5.993606,-0.04604 7.633758,-1.311275 0.105833,3.261756 3.581929,3.235192 5.291666,1.058333 h 0.264584 c 1.582473,2.489332 3.92086,1.522121 5.820833,0 0.798777,2.753201 3.815027,1.324504 5.291666,0 0.833703,2.807334 4.038865,1.288997 5.55625,0 1.52109,2.96574 5.493808,1.361995 7.408333,-0.264583 1.842559,3.855772 6.208977,0.941625 8.466667,-0.79375 0.07144,2.958226 3.025775,3.472523 4.233333,0.79375 -2.970742,-1.53252 0.5461,-6.7749738 1.5875,-8.4666668 h -1.058333 l 0.529166,-3.439583 -2.948252,0.688816 -1.549664,2.750767 C 75.7441,9.5637352 75.367863,13.052636 73.107792,14.51356 L 72.578626,6.3114762 c -0.894028,0.113083 -2.296319,0.0817 -2.989263,0.725567 -2.280179,2.119207 -2.126721,8.6593358 -6.534414,8.6518218 -1.085321,-0.0019 -2.185988,-1.376574 -1.21629,-2.275284 1.016,-0.941467 7.479771,-4.5495368 3.052498,-6.3765378 -3.077633,-1.270026 -5.597525,1.997472 -6.293379,4.5660998 -0.313796,1.15824 -0.142346,2.812865 -1.375304,3.468582 -1.31101,0.697097 -1.280319,-1.112732 -1.149615,-1.881082 0.446088,-2.626228 1.1938,-3.9914778 2.48285,-6.0854158 h -1.058333 l 0.529167,-3.439584 -2.926821,0.725567 -1.571096,2.714017 c 0.496094,2.200169 0.04101,4.4768018 -0.731573,6.6143708 -0.238389,0.660003 -1.112044,2.251498 -2.008981,1.412558 -0.55589,-0.519854 -0.192881,-1.583188 -0.05768,-2.206096 0.418835,-1.927358 0.947737,-3.8668328 1.210733,-5.8208328 l -3.175,0.529166 c -4.797689,-3.857228 -6.011068,4.5886948 -7.405158,6.8501678 -0.476514,0.772822 -1.788848,1.28069 -1.959239,0.01246 -0.141288,-1.051295 0.371475,-2.393844 0.580495,-3.423047 0.215636,-1.060899 0.493448,-2.0943878 0.581819,-3.1749998 l 1.5875,-0.793749 h -1.322917 l 0.79375,-3.439584 c -3.276864,0.258604 -2.530474,1.56681 -4.497916,3.439584 M 11.459854,17.423986 h 2.910417 c 0.50628,-2.610696 0.584015,-7.7495398 3.439583,-8.7312498 0.827564,3.7919288 4.394703,-2.742485 0.0065,-1.406419 -0.46437,0.141394 -0.898233,0.395923 -1.329451,0.612669 -0.230003,-1.073308 -2.595483,-1.25304 -3.094144,-0.235188 -1.188455,2.4258588 -1.887722,7.0690848 -1.93294,9.7601878 m 5.027119,-9.5249998 -0.264584,0.264584 0.264584,-0.264584 m 47.889581,0 c 0.335227,2.1442368 -0.754062,3.8425178 -2.910416,4.2333338 0.508794,-1.758448 0.964935,-3.6823118 2.910416,-4.2333338 m -39.1623,0.463418 c 1.28561,-0.321072 0.759883,1.296379 0.718079,1.9178318 -0.1016,1.510057 0.369887,4.583404 -1.778768,5.092833 -1.158901,0.274743 -1.326382,-1.114267 -1.304951,-1.917833 0.03873,-1.452059 0.671433,-4.6697898 2.36564,-5.0928318 m 22.217591,-0.0449 c 1.750218,-0.233918 0.635529,6.9985998 -1.564746,7.0555648 -1.008063,0.02609 -1.077648,-1.187477 -1.058069,-1.917833 0.04075,-1.53154 0.726017,-4.8842338 2.622815,-5.1377318 m 22.236376,0.904399 c 0.03492,1.6909258 0.762529,3.9125258 0.10504,5.5407448 -0.627328,1.552972 -2.342357,1.096963 -2.750873,-0.249078 1.581943,-0.394097 1.742016,-3.862494 2.645833,-5.2916668 z"
       id="path214" /></g></svg>
